# xmcd CD database file
#
# Track frame offsets:
#	150
#	14000
#	27167
#	40075
#	53032
#	64432
#	76707
#	92182
#	105587
#	119817
#	132810
#	145477
#	158835
#	172522
#	185610
#	197277
#	211305
#	224030
#	238562
#	252215
#	264367
#	278721
#
# Disc length: 3887 seconds
#
# Revision: 0
# Processed by: cddbd v1.4PL0 Copyright (c) Steve Scherf et al.
# Submitted via: CDex 1.50beta10
#
DISCID=380f2d16
DTITLE=Cab Calloway - 1940
DYEAR=1991
DGENRE=Jazz
TTITLE0=Paradiddle  
TTITLE1=Boog It  
TTITLE2=Calling All Bars  
TTITLE3=Do I Care, No No  
TTITLE4=Lone Arranger  
TTITLE5=Feelin' Tip Top  
TTITLE6=Hard Times  
TTITLE7=Hi-De-Ho- Serenade  
TTITLE8=Who's Yehoodi?  
TTITLE9=Fifteen Minute Intermission  
TTITLE10=Rhapsody in Rhumba  
TTITLE11=Come on With the "Come On"  
TTITLE12=I Don't Stand a Ghost of a Chance with You  
TTITLE13=Bye Bye Blues  
TTITLE14=Papa's in Bed With His Britches On  
TTITLE15=Silly Old Moon  
TTITLE16=Boo-Wah Boo-Wah  
TTITLE17=Sunset  
TTITLE18=Yo Eta Cansa  
TTITLE19=Cupid's Nightmare  
TTITLE20=Levee Lullaby  
TTITLE21=Are You Hep to the Jive? 
EXTD=YEAR: 1991
EXTT0=
EXTT1=
EXTT2=
EXTT3=
EXTT4=
EXTT5=
EXTT6=
EXTT7=
EXTT8=
EXTT9=
EXTT10=
EXTT11=
EXTT12=
EXTT13=
EXTT14=
EXTT15=
EXTT16=
EXTT17=
EXTT18=
EXTT19=
EXTT20=
EXTT21=
PLAYORDER=
